<svg width="195" height="119" viewBox="0 0 195 119" fill="none" xmlns="http://www.w3.org/2000/svg">
<g clip-path="url(#clip0_636_729)">
<mask id="mask0_636_729" style="mask-type:luminance" maskUnits="userSpaceOnUse" x="0" y="0" width="195" height="119">
<path d="M194.53 0H0V118.436H194.53V0Z" fill="white"/>
</mask>
<g mask="url(#mask0_636_729)">
<path d="M194.347 24.6356C194.18 24.0074 193.802 23.0725 192.932 22.2094C193.133 21.1833 193.033 20.3155 192.86 19.6634C192.645 18.8483 192.1 17.6064 190.719 16.6282C190.852 15.7268 190.757 14.9597 190.599 14.3699C190.179 12.7877 188.682 10.093 183.337 9.81963C183.06 9.80527 182.773 9.80048 182.491 9.80048C176.172 9.80048 168.666 13.3247 166.438 14.4466L164.119 14.8302C162.088 10.7259 159.607 8.27093 156.724 7.51337C156.131 7.3599 155.525 7.2784 154.922 7.2784C153.177 7.2784 151.461 7.93532 149.95 9.17234C146.293 12.1787 146.977 17.6496 151.795 24.3047C150.113 25.1055 148.769 26.4912 147.909 28.294L137.951 32.336L142.593 22.9143C143.157 21.7635 143.042 20.4065 142.292 19.3709C141.651 18.4838 140.614 17.9564 139.519 17.9564C139.356 17.9564 139.189 17.966 139.022 17.9948L121.262 20.6032L118.25 2.85761C118.035 1.59179 117.146 0.560903 115.922 0.162935C115.583 0.0526547 115.229 -0.00488281 114.87 -0.00488281C113.972 -0.00488281 113.121 0.340343 112.476 0.973255L99.6349 13.5596L86.7941 0.973255C86.1491 0.340343 85.298 -0.00488281 84.399 -0.00488281C84.0406 -0.00488281 83.692 0.0526547 83.338 0.162935C82.1235 0.560903 81.2343 1.59179 81.0196 2.85761L78.0077 20.6032L60.2432 17.9948C60.0806 17.9708 59.9181 17.9612 59.7508 17.9612C58.656 17.9612 57.6186 18.4935 56.978 19.3757C56.2227 20.4114 56.108 21.7731 56.6769 22.9238L63.7475 37.2747C61.7298 36.5315 59.636 35.7547 57.5422 34.9827C53.2445 33.4005 49.7547 32.1107 46.9102 31.0654C46.088 28.9173 44.6156 27.2487 42.7129 26.3425C47.5269 19.6873 48.2153 14.2165 44.5582 11.2101C43.0475 9.96832 41.3313 9.31618 39.5864 9.31618C38.9841 9.31618 38.377 9.39289 37.7842 9.55115C34.9015 10.3039 32.4204 12.7637 30.3887 16.868L28.0701 16.4844C25.8424 15.3624 18.3417 11.8383 12.0075 11.8383C11.7254 11.8383 11.4481 11.843 11.1709 11.8575C5.82621 12.1307 4.32512 14.8254 3.90443 16.4077C3.74667 16.9975 3.65585 17.7646 3.78492 18.6661C2.40812 19.6442 1.86314 20.8861 1.64801 21.7012C1.47591 22.3485 1.38031 23.2163 1.57631 24.2472C0.70625 25.1102 0.323804 26.0453 0.156485 26.6734C-0.627527 29.6413 1.21299 32.4655 3.46462 34.4074C1.95397 36.613 1.76753 39.2213 2.98656 41.4941C4.38727 44.1024 7.39424 45.7231 10.8363 45.7231C11.1804 45.7231 11.5294 45.7087 11.8736 45.6751C14.718 45.4019 17.3378 44.5292 19.1305 43.7908C20.6029 45.1285 22.8354 46.6485 25.9284 47.4252C26.9897 47.6938 28.0701 47.828 29.1505 47.828C30.2309 47.828 31.2874 47.6938 32.3295 47.43C32.6164 47.6026 32.908 47.7513 33.214 47.8807C34.1892 48.2979 35.2266 48.5089 36.3022 48.5089C38.0806 48.5089 39.8972 47.9239 41.5465 46.8355C43.3344 47.4924 45.2562 48.1972 47.2688 48.9356C47.0345 49.4055 46.9054 49.9329 46.9054 50.4795C46.9054 51.7597 47.6082 52.9248 48.7412 53.5242L64.6269 61.8862L56.6769 78.0206C56.1128 79.1718 56.2275 80.5286 56.978 81.5644C57.6186 82.4512 58.656 82.9832 59.7556 82.9832C59.9133 82.9832 60.0711 82.974 60.248 82.9501L64.0918 82.3843L60.2288 86.8192C59.2345 84.5658 57.5278 82.264 54.6499 80.4807C52.3744 79.0662 50.0032 78.3519 47.6034 78.3519C46.3748 78.3519 45.151 78.5434 43.9702 78.9269C40.3274 80.1015 37.2296 83.0937 35.4465 87.15C34.9541 87.917 34.5668 88.7657 34.3039 89.677C32.5591 95.6706 36.0966 103.462 42.5791 108.166C43.669 111.191 47.2496 118.45 56.5 118.45C56.7677 118.45 57.0402 118.446 57.3175 118.431C57.3844 118.431 57.4513 118.422 57.5135 118.417C57.6617 118.436 57.8146 118.45 57.9628 118.45C58.3405 118.45 58.7134 118.388 59.0672 118.269C59.0958 118.259 59.2058 118.22 59.3779 118.153C60.7595 117.837 61.8973 117.257 62.7718 116.432C65.1479 114.912 66.8213 113.08 67.7394 110.98C68.4371 109.383 68.6046 107.657 68.2364 105.907C68.8341 105.121 69.2496 104.224 69.4601 103.246C69.5889 102.637 69.6368 102.004 69.6086 101.343L79.6137 89.8544L81.0097 98.0964C81.2251 99.3624 82.1143 100.393 83.3281 100.787C83.6724 100.897 84.0314 100.954 84.3898 100.954C85.2882 100.954 86.1393 100.604 86.7849 99.9761L99.6208 87.3899L112.461 99.9761C113.107 100.604 113.957 100.954 114.856 100.954C115.214 100.954 115.569 100.897 115.917 100.787C117.132 100.388 118.021 99.3575 118.236 98.0921L119.632 89.8495L129.637 101.338C129.609 101.995 129.657 102.633 129.786 103.241C129.996 104.22 130.407 105.121 131.009 105.903C130.641 107.653 130.809 109.379 131.507 110.975C132.425 113.076 134.098 114.907 136.473 116.427C137.349 117.257 138.486 117.832 139.868 118.148C140.04 118.216 140.145 118.249 140.179 118.264C140.537 118.383 140.91 118.446 141.283 118.446C141.431 118.446 141.584 118.436 141.733 118.412C141.799 118.417 141.861 118.422 141.928 118.426C142.201 118.441 142.468 118.446 142.746 118.446C151.996 118.446 155.577 111.181 156.667 108.161C163.149 103.462 166.687 95.6657 164.942 89.6721C164.674 88.7614 164.292 87.9127 163.799 87.1451C162.012 83.0888 158.919 80.1015 155.275 78.922C154.095 78.5434 152.876 78.347 151.647 78.347C149.247 78.347 146.876 79.0613 144.596 80.4758C141.718 82.2597 140.011 84.5609 139.017 86.8143L135.154 82.3794L139.017 82.9452C139.175 82.9642 139.333 82.9789 139.49 82.9789C140.585 82.9789 141.623 82.4512 142.263 81.5644C143.018 80.5286 143.133 79.1669 142.564 78.0163L134.614 61.8813L150.5 53.5146C151.633 52.9201 152.331 51.755 152.331 50.47C152.331 49.185 151.628 48.0246 150.495 47.4252L148.096 46.1642L152.393 44.4189C154.176 45.747 156.179 46.4663 158.172 46.4663C159.248 46.4663 160.29 46.2553 161.261 45.8382C161.562 45.7087 161.859 45.5601 162.14 45.3874C163.182 45.6512 164.244 45.7854 165.32 45.7854C166.396 45.7854 167.48 45.6512 168.541 45.3827C171.635 44.6059 173.867 43.086 175.34 41.7482C177.132 42.4866 179.752 43.364 182.597 43.6326C182.94 43.6661 183.29 43.6805 183.629 43.6805C187.071 43.6805 190.078 42.0599 191.479 39.4515C192.698 37.1788 192.512 34.5704 191.001 32.3648C193.252 30.4277 195.093 27.5987 194.309 24.6308L194.347 24.6356Z" fill="white"/>
<path d="M164.509 30.5377C163.5 28.0396 160.66 26.8313 158.169 27.843L120.676 43.0617C118.185 44.0734 116.981 46.9167 117.99 49.4196C118.754 51.3183 120.58 52.4691 122.502 52.4691C123.109 52.4691 123.726 52.354 124.328 52.1095L161.822 36.8908C164.313 35.8791 165.517 33.0358 164.509 30.5329V30.5377Z" fill="#FD2222"/>
<path d="M122.499 53.1936C120.215 53.1936 118.178 51.8175 117.323 49.6934C116.165 46.8309 117.552 43.5609 120.406 42.4006L157.9 27.1819C159.281 26.6209 160.802 26.6352 162.174 27.2154C163.545 27.8004 164.612 28.884 165.171 30.2697C166.328 33.1322 164.941 36.4022 162.087 37.5626L124.594 52.7813C123.924 53.0546 123.217 53.1936 122.499 53.1936ZM159.998 28.208C159.472 28.208 158.942 28.3086 158.44 28.5148L120.946 43.7335C118.824 44.5965 117.796 47.0275 118.656 49.1516C119.292 50.7339 120.803 51.7552 122.504 51.7552C123.04 51.7552 123.561 51.6545 124.058 51.4484L161.552 36.2297C163.675 35.3666 164.703 32.9356 163.842 30.8115C163.426 29.7807 162.637 28.9751 161.614 28.5388C161.093 28.3182 160.543 28.208 159.993 28.208H159.998Z" fill="black"/>
<path d="M159.948 42.6701C162.984 41.3666 163.982 36.8799 162.177 32.6488C160.371 28.4176 156.446 26.0442 153.41 27.3477C150.373 28.6511 149.375 33.1378 151.181 37.3689C152.986 41.6001 156.911 43.9735 159.948 42.6701Z" fill="white"/>
<path d="M158.207 43.7475C155.262 43.7475 152.106 41.3694 150.524 37.6581C148.564 33.0696 149.736 28.1501 153.13 26.6925C156.524 25.2349 160.879 27.7857 162.834 32.3743C164.794 36.9629 163.623 41.8824 160.229 43.34C159.583 43.6181 158.899 43.7523 158.207 43.7523V43.7475ZM151.844 37.0876C153.493 40.9474 157.002 43.1578 159.67 42.0119C162.337 40.8659 163.164 36.7951 161.519 32.9353C159.87 29.0755 156.366 26.8651 153.694 28.011C151.026 29.157 150.199 33.2278 151.844 37.0876Z" fill="black"/>
<path d="M178.782 16.959L159.057 24.1224L156.438 33.5298L165.358 38.8952L177.563 34.5703L182.133 28.8261L184.246 22.5066L178.782 16.959Z" fill="white"/>
<path d="M183.865 20.3878C187.541 18.0288 189.678 13.5888 183.162 13.2531C176.646 12.9175 167.525 17.7507 167.525 17.7507L162.061 18.6617C159.221 11.3976 155.464 9.10087 152.126 11.8387C148.465 14.845 155.607 23.6483 155.607 23.6483C153.877 27.5225 155.947 32.37 155.947 32.37" fill="white"/>
<path d="M155.944 33.0884C155.666 33.0884 155.399 32.9254 155.284 32.6521C155.198 32.4507 153.247 27.7901 154.777 23.7626C153.324 21.8974 147.879 14.3887 151.67 11.2769C153.047 10.1454 154.557 9.75218 156.039 10.1405C158.463 10.7734 160.695 13.4346 162.507 17.8506L167.293 17.0546C168.383 16.4888 176.858 12.2023 183.197 12.5332C186.644 12.7105 187.701 14.0099 187.983 15.0648C188.533 17.1505 186.506 19.5431 184.254 20.9912C183.919 21.2069 183.48 21.1062 183.264 20.7754C183.05 20.4397 183.15 19.9986 183.484 19.7829C185.531 18.4691 186.898 16.5608 186.601 15.4388C186.377 14.5997 185.148 14.0771 183.131 13.9716C176.877 13.6551 167.952 18.3348 167.862 18.3828C167.795 18.4212 167.718 18.4451 167.642 18.4547L162.177 19.3657C161.848 19.4233 161.518 19.2363 161.394 18.9198C159.739 14.6908 157.712 12.068 155.68 11.5358C154.643 11.2625 153.601 11.5502 152.583 12.3941C150.049 14.475 154.428 21.0535 156.163 23.1968C156.336 23.4078 156.374 23.6954 156.264 23.9448C154.686 27.4785 156.589 32.048 156.608 32.0911C156.761 32.4555 156.593 32.8774 156.23 33.0357C156.139 33.0741 156.044 33.0932 155.949 33.0932L155.944 33.0884Z" fill="black"/>
<path d="M171.758 22.1905C171.758 22.1905 178.904 18.2108 185.42 18.5465C191.936 18.8821 189.799 23.3221 186.123 25.6811" fill="white"/>
<path d="M186.124 26.3997C185.889 26.3997 185.655 26.2847 185.521 26.0689C185.306 25.7333 185.407 25.2874 185.741 25.0764C187.788 23.7626 189.155 21.8543 188.858 20.7323C188.638 19.8932 187.405 19.3706 185.387 19.2651C179.153 18.9486 172.178 22.7797 172.112 22.8181C171.763 23.0098 171.328 22.8852 171.136 22.5399C170.946 22.1947 171.07 21.7536 171.414 21.5618C171.715 21.394 178.829 17.4862 185.459 17.8267C188.906 18.0041 189.962 19.3034 190.245 20.3583C190.794 22.444 188.768 24.8367 186.515 26.2847C186.396 26.3614 186.262 26.3997 186.128 26.3997H186.124Z" fill="black"/>
<path d="M173.09 27.2341C173.09 27.2341 180.394 23.1825 186.91 23.5134C193.426 23.8442 191.289 28.289 187.613 30.648C183.937 33.007 175.241 34.2633 175.241 34.2633" fill="white"/>
<path d="M175.234 34.9824C174.885 34.9824 174.574 34.7235 174.526 34.3639C174.469 33.9707 174.742 33.6062 175.134 33.5487C175.22 33.5343 183.72 32.2877 187.224 30.0389C189.27 28.7252 190.638 26.8168 190.341 25.6949C190.121 24.8558 188.887 24.3331 186.87 24.2276C180.636 23.916 173.504 27.8189 173.432 27.8573C173.088 28.0491 172.648 27.9244 172.457 27.5744C172.266 27.2244 172.39 26.788 172.739 26.5963C173.045 26.4284 180.307 22.4488 186.942 22.7892C190.388 22.9666 191.445 24.266 191.727 25.3208C192.277 27.4066 190.25 29.7992 187.998 31.2472C184.236 33.6638 175.703 34.9152 175.34 34.968C175.306 34.9728 175.273 34.9776 175.234 34.9776V34.9824Z" fill="black"/>
<path d="M155.501 31.0752C153.76 35.4911 159.674 44.0786 167.743 42.0456C172.352 40.8853 174.541 37.5626 174.541 37.5626C174.541 37.5626 178.48 39.7825 182.955 40.2141C187.43 40.6456 190.475 37.1166 187.984 34.0144C185.494 30.9121 175.77 32.2115 175.77 32.2115" fill="white"/>
<path d="M165.359 43.0618C162.309 43.0618 159.374 41.7048 157.18 39.1971C154.852 36.536 153.91 33.1653 154.837 30.811C154.98 30.4419 155.401 30.2597 155.77 30.4083C156.138 30.5521 156.319 30.9741 156.171 31.3433C155.449 33.1797 156.305 36.023 158.256 38.2526C159.426 39.5951 162.687 42.5822 167.573 41.35C171.832 40.2808 173.931 37.1977 173.95 37.1641C174.155 36.8525 174.572 36.7518 174.896 36.934C174.935 36.9532 178.764 39.0868 183.028 39.4944C185.5 39.7293 187.24 38.6553 187.866 37.4854C188.383 36.5265 188.225 35.4524 187.426 34.4647C185.59 32.1776 178.458 32.5803 175.867 32.9256C175.475 32.9783 175.112 32.7002 175.064 32.307C175.011 31.9138 175.288 31.5494 175.68 31.4967C176.718 31.3577 185.878 30.2357 188.545 33.5584C189.711 35.0065 189.922 36.6895 189.128 38.1663C188.105 40.0746 185.595 41.187 182.89 40.9281C179.256 40.5828 176.011 39.1156 174.748 38.4827C173.897 39.5184 171.67 41.8007 167.917 42.7453C167.061 42.9611 166.205 43.0665 165.354 43.0665L165.359 43.0618Z" fill="black"/>
<path d="M169.109 28.0926C169.109 28.0926 165.132 24.6548 160.719 26.8028L169.109 28.0926Z" fill="white"/>
<path d="M169.111 28.8122C168.944 28.8122 168.781 28.7547 168.643 28.6396C168.494 28.5101 164.957 25.5422 161.032 27.4505C160.673 27.6232 160.248 27.4745 160.076 27.1197C159.903 26.76 160.052 26.3333 160.405 26.1607C165.186 23.8304 169.402 27.3978 169.58 27.5512C169.88 27.8101 169.914 28.2657 169.656 28.5677C169.513 28.7308 169.316 28.817 169.111 28.817V28.8122Z" fill="black"/>
<path d="M78.2867 46.318C78.2867 46.318 67.3722 42.2664 56.382 38.21C33.6123 29.8095 33.5645 29.8095 32.3837 29.8047H32.355C29.6779 29.8047 27.5027 31.9719 27.4884 34.6618C27.474 36.9729 29.066 38.9148 31.2124 39.4326C33.8465 40.2765 58.6384 49.4298 74.9116 55.4712C75.4706 55.6774 76.0395 55.7781 76.5992 55.7781C78.5782 55.7781 80.4376 54.5602 81.1642 52.5895C82.0963 50.0627 80.8107 47.2529 78.291 46.318H78.2867Z" fill="#FD2222"/>
<path d="M76.5926 56.4967C75.9329 56.4967 75.2781 56.3768 74.6565 56.1467C58.5937 50.182 33.7636 41.0143 31.0148 40.1225C28.5002 39.5039 26.7553 37.2552 26.7696 34.6516C26.784 31.5782 29.289 29.0801 32.3533 29.0801C33.2585 29.0865 41.3503 31.9026 56.6289 37.5285C67.6098 41.5801 78.5188 45.6317 78.5336 45.6365C79.9339 46.1544 81.0477 47.19 81.6694 48.5517C82.291 49.9087 82.3481 51.4334 81.832 52.8335C81.0238 55.0199 78.9208 56.4919 76.5926 56.4919V56.4967ZM32.3772 30.5233C30.0778 30.5233 28.2182 32.3789 28.2038 34.6612C28.1942 36.6031 29.4994 38.2765 31.3781 38.732C31.3972 38.732 31.4116 38.7416 31.4259 38.7464C34.0791 39.5951 59.0288 48.8106 75.1535 54.7993C75.6175 54.972 76.1047 55.0582 76.5926 55.0582C78.3231 55.0582 79.8861 53.9651 80.4838 52.3396C80.8661 51.2992 80.8231 50.1676 80.3641 49.1559C79.9057 48.1441 79.0736 47.377 78.0365 46.9886C78.0365 46.9886 67.122 42.937 56.1317 38.8806C34.3277 30.8397 33.4385 30.5281 32.3772 30.5185V30.5233Z" fill="black"/>
<path d="M43.3449 39.4119C45.1503 35.1807 44.1524 30.6941 41.1159 29.3906C38.0794 28.0872 34.1542 30.4606 32.3487 34.6918C30.5432 38.9229 31.5412 43.4096 34.5777 44.713C37.6142 46.0165 41.5394 43.6431 43.3449 39.4119Z" fill="white"/>
<path d="M36.3216 45.7807C35.6285 45.7807 34.9448 45.6464 34.2995 45.3683C30.9053 43.9107 29.7388 38.9913 31.6941 34.4026C33.6541 29.814 38.0092 27.2632 41.3986 28.7208C44.7927 30.1784 45.9592 35.0978 44.004 39.6865C42.4168 43.4024 39.2664 45.7807 36.3216 45.7807ZM39.3382 29.7421C36.9718 29.7421 34.3616 31.799 33.0087 34.9684C31.3594 38.8282 32.1913 42.899 34.8588 44.0449C37.5263 45.1909 41.0353 42.9805 42.6845 39.1207C44.3339 35.2609 43.502 31.1901 40.8345 30.0442C40.3564 29.838 39.8544 29.7421 39.3382 29.7421Z" fill="black"/>
<path d="M15.7455 18.9922L35.4699 26.1556L38.0897 35.5678L29.1692 40.9284L16.9693 36.6083L12.3943 30.8593L10.2812 24.5398L15.7455 18.9922Z" fill="white"/>
<path d="M10.6651 22.4201C6.98883 20.061 4.85193 15.621 11.3678 15.2854C17.8837 14.9497 27.005 19.7829 27.005 19.7829L32.4691 20.694C35.3088 13.4298 39.0663 11.1331 42.4031 13.8709C46.065 16.8773 38.9229 25.6805 38.9229 25.6805C40.6534 29.5547 38.5834 34.4022 38.5834 34.4022" fill="white"/>
<path d="M38.5878 35.1271C38.4921 35.1271 38.3965 35.1079 38.3057 35.0696C37.9424 34.9161 37.7702 34.4894 37.928 34.125C37.9472 34.0771 39.8498 29.5076 38.2722 25.9786C38.1622 25.7293 38.2005 25.4416 38.3726 25.2306C40.2322 22.934 44.5013 16.5185 41.9532 14.428C40.9302 13.5889 39.888 13.3012 38.8554 13.5697C36.8237 14.1019 34.7967 16.7247 33.1427 20.9537C33.0184 21.2701 32.6885 21.4572 32.3587 21.3996L26.8945 20.4886C26.818 20.4742 26.7463 20.4502 26.6746 20.4167C26.5838 20.3687 17.6633 15.689 11.4055 16.0055C9.39291 16.111 8.15958 16.6288 7.93485 17.4727C7.63846 18.5946 9.00569 20.503 11.0518 21.8168C11.3864 22.0325 11.4821 22.4736 11.2717 22.8093C11.0565 23.1449 10.612 23.2408 10.2821 23.025C8.03046 21.577 5.99875 19.1844 6.55326 17.0987C6.83057 16.0391 7.89184 14.7444 11.3386 14.567C17.6776 14.241 26.1535 18.5227 27.2435 19.0885L32.0288 19.8844C33.8407 15.4733 36.0732 12.8121 38.4969 12.1744C39.9836 11.786 41.4895 12.1744 42.8663 13.3108C46.6525 16.4226 41.2075 23.9313 39.759 25.7964C41.2887 29.8241 39.3383 34.4846 39.2522 34.686C39.1375 34.9593 38.8698 35.1223 38.5925 35.1223L38.5878 35.1271Z" fill="black"/>
<path d="M22.7728 24.2227C22.7728 24.2227 15.6259 20.243 9.11001 20.5787C2.59412 20.9143 4.73103 25.3543 8.40725 27.7133" fill="white"/>
<path d="M8.40762 28.4335C8.27372 28.4335 8.13988 28.3951 8.0204 28.3184C5.76874 26.8704 3.73701 24.4778 4.29155 22.3921C4.56882 21.3324 5.6301 20.0378 9.07688 19.8604C15.7075 19.5152 22.8209 23.4278 23.1221 23.5955C23.4663 23.7874 23.5954 24.2237 23.3994 24.5737C23.2082 24.9189 22.7731 25.0484 22.4242 24.8518C22.3525 24.8135 15.3728 20.9776 9.14855 21.2988C7.136 21.4043 5.90259 21.9221 5.67791 22.766C5.38151 23.8881 6.74878 25.7964 8.79484 27.1101C9.12947 27.3259 9.22508 27.767 9.01472 28.1027C8.87609 28.3184 8.64664 28.4335 8.41241 28.4335H8.40762Z" fill="black"/>
<path d="M21.4462 29.2673C21.4462 29.2673 14.1415 25.2157 7.62566 25.5466C1.10974 25.8822 3.24664 30.3222 6.92289 32.6812C10.5991 35.0402 19.2949 36.2965 19.2949 36.2965" fill="white"/>
<path d="M19.2922 37.0201C19.2588 37.0201 19.2253 37.0201 19.1871 37.0105C18.8238 36.9578 10.2905 35.7063 6.5282 33.2898C4.27655 31.8417 2.24482 29.4492 2.79936 27.3634C3.07664 26.3038 4.13792 25.0091 7.58467 24.8317C14.2153 24.4866 21.4817 28.471 21.7877 28.6388C22.1319 28.8306 22.2609 29.267 22.0697 29.617C21.8785 29.967 21.4435 30.0917 21.0945 29.8998C21.0228 29.8615 13.8855 25.9442 7.65641 26.2702C5.64379 26.3757 4.41041 26.8935 4.18572 27.7374C3.88933 28.8594 5.25656 30.7677 7.30263 32.0815C10.802 34.3303 19.3066 35.5769 19.3926 35.5913C19.7846 35.6488 20.0571 36.0132 19.9998 36.4064C19.9472 36.766 19.6412 37.0249 19.2922 37.0249V37.0201Z" fill="black"/>
<path d="M39.0265 33.1084C40.7666 37.5244 34.8531 46.1119 26.7835 44.0789C22.1751 42.9185 19.9856 39.5958 19.9856 39.5958C19.9856 39.5958 16.0464 41.8157 11.5718 42.2473C7.09721 42.6788 4.05202 39.1498 6.54271 36.0476C9.03337 32.9453 18.757 34.2448 18.757 34.2448" fill="white"/>
<path d="M29.1715 45.0996C28.3206 45.0996 27.4649 44.9941 26.6091 44.7784C22.8612 43.8338 20.6287 41.5515 19.7778 40.5158C18.5157 41.1488 15.2697 42.616 11.6365 42.9611C8.92593 43.2201 6.42091 42.1077 5.39788 40.1994C4.60431 38.7225 4.81943 37.0396 5.9811 35.5916C8.65341 32.2687 17.8129 33.3908 18.8503 33.5298C19.2423 33.5825 19.5196 33.9421 19.467 34.3402C19.4144 34.7333 19.0511 35.0066 18.6639 34.9587C16.0729 34.6134 8.94029 34.2155 7.10453 36.4978C6.30616 37.4903 6.15323 38.5643 6.66472 39.5185C7.29096 40.6885 9.03111 41.7673 11.5026 41.5275C15.7669 41.12 19.5961 38.9863 19.6343 38.9671C19.9594 38.7849 20.3753 38.8808 20.5857 39.1973C20.6048 39.226 22.7034 42.3091 26.9629 43.3783C31.8534 44.6106 35.1042 41.6186 36.2802 40.2809C38.2307 38.0513 39.0912 35.208 38.3693 33.3716C38.2259 33.0024 38.4027 32.5852 38.7709 32.4366C39.139 32.2927 39.5549 32.4702 39.7031 32.8393C40.6305 35.1936 39.6887 38.5643 37.3606 41.2255C35.1664 43.7331 32.2311 45.0901 29.1811 45.0901L29.1715 45.0996Z" fill="black"/>
<path d="M25.418 30.1258C25.418 30.1258 29.3954 26.688 33.8079 28.836L25.418 30.1258Z" fill="white"/>
<path d="M25.4178 30.8445C25.217 30.8445 25.0162 30.7582 24.8728 30.5952C24.6146 30.2931 24.648 29.8424 24.9492 29.5834C25.1261 29.43 29.3378 25.8627 34.1231 28.1929C34.4816 28.3656 34.6298 28.7971 34.453 29.1519C34.2809 29.5115 33.8506 29.6602 33.4969 29.4828C29.5673 27.5696 26.0344 30.5424 25.8862 30.6719C25.7524 30.7869 25.585 30.8445 25.4178 30.8445Z" fill="black"/>
<path d="M148.936 50.4696L130.086 60.3901L139.519 79.536L118.45 76.4431L114.88 97.4972L99.6436 82.5662L84.4083 97.4972L80.8368 76.4431L59.7645 79.536L69.1963 60.3901L50.3516 50.4696L69.1963 40.5444L59.7645 21.3988L80.8368 24.4963L84.4083 3.4375L99.6436 18.3685L114.88 3.4375L118.45 24.4963L139.519 21.3988L130.086 40.5444L148.936 50.4696Z" fill="#FFE100"/>
<path d="M114.882 98.2163C114.695 98.2163 114.518 98.1439 114.38 98.0101L99.6458 83.5682L84.9125 98.0101C84.721 98.1966 84.4437 98.2641 84.1908 98.1776C83.9374 98.096 83.7508 97.8806 83.7079 97.6118L80.2511 77.2482L59.8719 80.2404C59.609 80.279 59.346 80.1686 59.1883 79.9526C59.0305 79.7372 59.0066 79.4494 59.1261 79.2094L68.2473 60.6968L50.0192 51.0976C49.7849 50.973 49.6367 50.7284 49.6367 50.4599C49.6367 50.1914 49.7849 49.9469 50.0192 49.8222L68.2473 40.223L59.1261 21.7103C59.0066 21.4706 59.0305 21.1829 59.1883 20.9671C59.346 20.7514 59.609 20.6411 59.8719 20.6795L80.2511 23.6714L83.703 3.30791C83.7459 3.0442 83.9325 2.82843 84.1859 2.74212C84.4394 2.66061 84.7161 2.72295 84.9076 2.90994L99.6415 17.3519L114.375 2.90994C114.566 2.72295 114.843 2.66061 115.097 2.74212C115.35 2.82364 115.537 3.0394 115.579 3.30791L119.031 23.6714L139.41 20.6795C139.674 20.6411 139.936 20.7514 140.094 20.9671C140.252 21.1829 140.276 21.4706 140.157 21.7103L131.035 40.223L149.263 49.8222C149.498 49.9469 149.646 50.1914 149.646 50.4599C149.646 50.7284 149.498 50.973 149.263 51.0976L131.035 60.6968L140.157 79.2094C140.276 79.4494 140.252 79.7372 140.094 79.9526C139.936 80.1686 139.674 80.279 139.41 80.2404L119.031 77.2482L115.579 97.6118C115.537 97.8757 115.35 98.0917 115.097 98.1776C115.025 98.2016 114.949 98.2114 114.877 98.2114L114.882 98.2163ZM99.6458 81.8469C99.8275 81.8469 100.009 81.9138 100.148 82.0531L114.404 96.0298L117.745 76.3277C117.812 75.9441 118.17 75.6803 118.558 75.7379L138.278 78.6344L129.452 60.7208C129.281 60.3707 129.419 59.9489 129.764 59.7667L147.404 50.4791L129.764 41.1916C129.419 41.0094 129.281 40.5874 129.452 40.2374L138.278 22.3241L118.558 25.2201C118.17 25.2729 117.812 25.014 117.745 24.6304L114.404 4.92855L100.148 18.9054C99.8704 19.1787 99.4262 19.1787 99.1439 18.9054L84.8886 4.92855L81.5472 24.6304C81.4797 25.014 81.1213 25.2777 80.7341 25.2201L61.0145 22.3241L69.8392 40.2374C70.0116 40.5874 69.8729 41.0094 69.5287 41.1916L51.8884 50.4791L69.5287 59.7667C69.8729 59.9489 70.0116 60.3707 69.8392 60.7208L61.0145 78.6344L80.7341 75.7379C81.1164 75.6803 81.4797 75.9441 81.5472 76.3277L84.8886 96.0298L99.1439 82.0531C99.2826 81.9187 99.4642 81.8469 99.6458 81.8469Z" fill="black"/>
<path d="M99.6455 80.3603C116.105 80.3603 129.448 66.9783 129.448 50.4698C129.448 33.9617 116.105 20.5791 99.6455 20.5791C83.1865 20.5791 69.8438 33.9617 69.8438 50.4698C69.8438 66.9783 83.1865 80.3603 99.6455 80.3603Z" fill="#FD2222"/>
<path d="M99.6441 81.08C82.8164 81.08 69.125 67.3482 69.125 50.4703C69.125 33.5926 82.8164 19.8604 99.6441 19.8604C116.471 19.8604 130.163 33.5926 130.163 50.4703C130.163 67.3482 116.471 81.08 99.6441 81.08ZM99.6441 21.294C83.6049 21.294 70.5591 34.379 70.5591 50.4655C70.5591 66.5523 83.6049 79.6373 99.6441 79.6373C115.683 79.6373 128.728 66.5523 128.728 50.4655C128.728 34.379 115.683 21.294 99.6441 21.294Z" fill="black"/>
<path d="M90.7794 50.7434C90.8463 50.7434 90.9089 50.7434 90.9758 50.7434C93.0935 50.7434 95.0775 51.29 96.784 52.2442C97.7064 50.403 98.2519 48.1111 98.2519 45.6274C98.2519 39.5572 94.9958 34.6377 90.9758 34.6377C89.5465 34.6377 88.2174 35.261 87.0938 36.335C89.4747 39.164 90.9758 43.2923 90.9758 47.8905C90.9758 48.8686 90.9089 49.8228 90.7794 50.7482V50.7434Z" fill="white"/>
<path d="M96.7873 52.9581C96.6676 52.9581 96.5485 52.9293 96.4381 52.867C94.7843 51.9464 92.9009 51.4573 90.979 51.4573H90.7924C90.5917 51.4573 90.3813 51.3758 90.2426 51.2176C90.1039 51.0593 90.0419 50.8484 90.0708 50.6422C90.1947 49.736 90.2616 48.8106 90.2616 47.8852C90.2616 43.637 88.9091 39.595 86.5471 36.7948C86.3035 36.5023 86.3274 36.0708 86.5999 35.8119C87.8953 34.57 89.4111 33.918 90.979 33.918C95.3869 33.918 98.9719 39.1683 98.9719 45.6268C98.9719 48.1489 98.4368 50.5463 97.4279 52.5649C97.342 52.7423 97.1843 52.8718 96.9977 52.9293C96.9308 52.9485 96.859 52.9629 96.7873 52.9629V52.9581ZM91.5908 50.0333C93.2833 50.1148 94.942 50.5319 96.4528 51.2559C97.1647 49.5825 97.5378 47.6503 97.5378 45.622C97.5378 39.9594 94.5977 35.3516 90.979 35.3516C89.975 35.3516 88.9901 35.7208 88.0868 36.4208C90.3862 39.4416 91.6957 43.5747 91.6957 47.8852C91.6957 48.6044 91.6577 49.3236 91.5908 50.0333Z" fill="black"/>
<path d="M83.7002 45.6224C83.7002 48.1061 84.2451 50.398 85.1681 52.2393C86.8219 51.3186 88.7341 50.7768 90.7757 50.7433C90.9046 49.8179 90.9715 48.8637 90.9715 47.8856C90.9715 43.2874 89.4705 39.159 87.0895 36.3301C85.0533 38.2768 83.6953 41.7098 83.6953 45.6224H83.7002Z" fill="black"/>
<path d="M85.169 52.9589C85.0972 52.9589 85.0254 52.9493 84.9585 52.9253C84.772 52.8677 84.6142 52.7335 84.5283 52.5609C83.5195 50.5423 82.9844 48.1401 82.9844 45.6228C82.9844 41.6432 84.3369 37.9752 86.5982 35.8127C86.7418 35.6736 86.9376 35.6017 87.1339 35.6161C87.3297 35.6257 87.5162 35.7168 87.6402 35.8702C90.217 38.9293 91.6947 43.3069 91.6947 47.8908C91.6947 48.8833 91.6271 49.8758 91.4891 50.8492C91.4412 51.1992 91.1448 51.4629 90.7907 51.4677C88.9313 51.4965 87.11 51.9855 85.5182 52.8725C85.4077 52.9349 85.2887 52.9637 85.169 52.9637V52.9589ZM87.0474 37.4285C85.3936 39.3752 84.4185 42.3672 84.4185 45.6228C84.4185 47.651 84.791 49.5833 85.5034 51.2567C86.9474 50.5663 88.5251 50.1539 90.1409 50.0484C90.217 49.334 90.2556 48.61 90.2556 47.886C90.2556 43.9494 89.094 40.1856 87.0431 37.4285H87.0474Z" fill="black"/>
<path d="M82.3009 55.2219C82.1285 55.2219 81.9517 55.1595 81.8179 55.0349C81.5265 54.7664 81.5068 54.3108 81.775 54.0184C84.0983 51.4772 87.4538 50.0195 90.9823 50.0195C93.1479 50.0195 95.2798 50.571 97.1392 51.6114C97.4834 51.8032 97.608 52.2444 97.4165 52.5895C97.2257 52.9348 96.7857 53.0594 96.4414 52.8676C94.7919 51.947 92.9037 51.4579 90.9823 51.4579C87.8557 51.4579 84.8869 52.7478 82.8311 54.9918C82.6881 55.1452 82.4967 55.2267 82.3009 55.2267V55.2219Z" fill="black"/>
<path d="M107.6 50.7434C107.667 50.7434 107.729 50.7434 107.796 50.7434C109.914 50.7434 111.898 51.29 113.604 52.2442C114.527 50.403 115.072 48.1111 115.072 45.6274C115.072 39.5572 111.816 34.6377 107.796 34.6377C106.367 34.6377 105.038 35.261 103.914 36.335C106.295 39.164 107.796 43.2923 107.796 47.8905C107.796 48.8686 107.729 49.8228 107.6 50.7482V50.7434Z" fill="white"/>
<path d="M113.604 52.9581C113.484 52.9581 113.365 52.9293 113.254 52.867C111.601 51.9464 109.717 51.4573 107.795 51.4573H107.609C107.389 51.4573 107.198 51.3758 107.059 51.2176C106.92 51.0593 106.858 50.8484 106.887 50.6422C107.011 49.736 107.078 48.8106 107.078 47.8852C107.078 43.637 105.726 39.595 103.364 36.7948C103.12 36.5023 103.144 36.0708 103.416 35.8119C104.712 34.57 106.227 33.918 107.795 33.918C112.203 33.918 115.788 39.1683 115.788 45.6268C115.788 48.1489 115.253 50.5463 114.244 52.5649C114.158 52.7423 114.001 52.8718 113.814 52.9293C113.747 52.9485 113.675 52.9629 113.604 52.9629V52.9581ZM108.407 50.0333C110.1 50.1148 111.758 50.5319 113.269 51.2559C113.982 49.5825 114.354 47.6503 114.354 45.622C114.354 39.9594 111.414 35.3516 107.795 35.3516C106.791 35.3516 105.807 35.7208 104.903 36.4208C107.203 39.4416 108.512 43.5747 108.512 47.8852C108.512 48.6044 108.474 49.3236 108.407 50.0333Z" fill="black"/>
<path d="M100.524 45.6224C100.524 48.1061 101.069 50.398 101.992 52.2393C103.646 51.3186 105.558 50.7768 107.6 50.7433C107.729 49.8179 107.796 48.8637 107.796 47.8856C107.796 43.2874 106.295 39.159 103.914 36.3301C101.878 38.2768 100.52 41.7098 100.52 45.6224H100.524Z" fill="black"/>
<path d="M101.993 52.9589C101.921 52.9589 101.85 52.9493 101.783 52.9253C101.596 52.8677 101.438 52.7335 101.353 52.5609C100.344 50.5423 99.8086 48.1449 99.8086 45.6228C99.8086 41.6432 101.161 37.9752 103.422 35.8127C103.566 35.6736 103.757 35.6017 103.958 35.6161C104.154 35.6257 104.34 35.7168 104.464 35.8702C107.041 38.9293 108.518 43.3069 108.518 47.8908C108.518 48.8833 108.451 49.8758 108.313 50.8492C108.265 51.1992 107.968 51.4629 107.615 51.4677C105.756 51.4965 103.934 51.9855 102.342 52.8725C102.232 52.9349 102.112 52.9637 101.993 52.9637V52.9589ZM103.867 37.4285C102.213 39.3752 101.238 42.3672 101.238 45.6228C101.238 47.651 101.61 49.5833 102.323 51.2567C103.767 50.5663 105.344 50.1539 106.96 50.0484C107.036 49.334 107.075 48.61 107.075 47.886C107.075 43.9494 105.913 40.1856 103.862 37.4285H103.867Z" fill="black"/>
<path d="M115.941 54.6753C115.763 54.6753 115.587 54.6082 115.448 54.4787C113.407 52.532 110.692 51.4579 107.799 51.4579C107.402 51.4579 107.082 51.1367 107.082 50.7387C107.082 50.3408 107.402 50.0195 107.799 50.0195C111.06 50.0195 114.129 51.2326 116.438 53.4334C116.724 53.7068 116.734 54.1622 116.462 54.4499C116.323 54.5986 116.132 54.6753 115.941 54.6753Z" fill="black"/>
<path d="M88.7707 74.1174L65.2264 101.155C64.2654 102.258 62.9129 102.824 61.5598 102.824C60.422 102.824 59.2842 102.426 58.3616 101.62C56.3347 99.8463 56.1291 96.7633 57.8979 94.7302L81.4424 67.6924" fill="#FD2222"/>
<path d="M61.5596 103.544C60.2115 103.544 58.9064 103.055 57.8881 102.163C55.5696 100.13 55.3305 96.5865 57.3575 94.2614L80.9015 67.2236C81.1599 66.9259 81.614 66.8922 81.9153 67.1561C82.2166 67.4199 82.2448 67.8704 81.9822 68.1729L58.4379 95.2107C56.932 96.9412 57.1089 99.5738 58.8347 101.084C59.59 101.746 60.5605 102.11 61.5645 102.11C62.7642 102.11 63.902 101.592 64.6911 100.686L88.2348 73.6486C88.4931 73.3509 88.9472 73.3172 89.2485 73.5811C89.5449 73.84 89.5781 74.2954 89.3154 74.5979L65.7712 101.636C64.7101 102.853 63.1754 103.553 61.5645 103.553L61.5596 103.544Z" fill="black"/>
<path d="M55.4688 95.6323C55.4688 95.6323 57.7252 90.1425 61.2628 93.2924C64.8006 96.443 69.3803 103.371 63.0983 105.351" fill="white"/>
<path d="M63.0909 106.07C62.7847 106.07 62.5024 105.874 62.4073 105.567C62.2876 105.188 62.4981 104.785 62.8755 104.665C64.3575 104.195 65.1939 103.442 65.4234 102.359C65.9352 99.9568 63.4156 96.1736 60.7817 93.8288C60.0455 93.1722 59.3762 92.9279 58.7261 93.0764C57.4305 93.3735 56.4075 95.2193 56.1255 95.9054C55.9725 96.2693 55.5566 96.4473 55.1885 96.2939C54.8251 96.1404 54.6483 95.7232 54.8013 95.3537C54.8538 95.2242 56.1207 92.2038 58.401 91.6712C59.5197 91.4122 60.6383 91.7718 61.7329 92.75C63.8267 94.6155 67.5891 99.0842 66.8244 102.656C66.5851 103.764 65.7867 105.25 63.3057 106.036C63.2339 106.061 63.1627 106.07 63.0909 106.07Z" fill="black"/>
<path d="M57.979 95.5409C57.979 95.5409 59.6857 87.6197 52.8638 83.391C46.9503 79.7226 41.0272 82.6473 38.4648 88.8231L57.979 112.639V114.993C57.979 114.993 63.0031 113.267 64.6195 109.575C66.2353 105.883 62.3772 102.287 62.3772 102.287" fill="white"/>
<path d="M57.9784 115.718C57.8302 115.718 57.6868 115.67 57.5624 115.584C57.376 115.449 57.2612 115.229 57.2612 114.999V112.898L37.9096 89.2791C37.7423 89.0729 37.6993 88.79 37.7997 88.5458C39.253 85.0362 41.8105 82.4662 44.8127 81.4973C47.552 80.6154 50.4633 81.056 53.2361 82.7774C60.4021 87.2221 58.6906 95.6084 58.6763 95.69C58.595 96.0784 58.2078 96.3227 57.8254 96.2417C57.4382 96.16 57.1944 95.7765 57.2756 95.3881C57.3378 95.0861 58.7767 87.9033 52.4855 84.0004C50.0809 82.5092 47.5806 82.1158 45.2525 82.8688C42.7619 83.6745 40.6059 85.7886 39.2912 88.7041L58.5281 112.184C58.6333 112.313 58.6906 112.472 58.6906 112.64V113.92C60.1535 113.249 62.8974 111.71 63.959 109.293C65.3453 106.123 61.9174 102.848 61.8842 102.82C61.5971 102.546 61.578 102.096 61.8505 101.803C62.1181 101.515 62.5722 101.496 62.8643 101.765C63.0361 101.928 67.0758 105.759 65.2735 109.873C63.5522 113.805 58.4277 115.608 58.2078 115.679C58.1313 115.703 58.0548 115.718 57.9736 115.718H57.9784Z" fill="black"/>
<path d="M56.4515 102.561C56.4515 102.561 54.8357 86.2686 44.3376 86.2686C33.8395 86.2686 35.8139 99.7703 45.5041 105.98C45.5041 105.98 47.5692 115.43 57.1686 114.98C66.7677 114.529 56.4515 102.561 56.4515 102.561Z" fill="white"/>
<path d="M56.5137 115.718C47.9709 115.718 45.3416 108.056 44.8826 106.435C38.9261 102.494 35.4362 95.5128 36.9182 90.4256C37.8313 87.2849 40.4702 85.5537 44.3424 85.5537C54.7927 85.5537 56.8962 100.164 57.1447 102.264C58.2347 103.558 63.2208 109.777 61.6861 113.368C61.0695 114.807 59.5637 115.594 57.2069 115.703C56.9726 115.713 56.7432 115.718 56.5137 115.718ZM44.3376 86.9921C41.1155 86.9921 39.0217 88.3207 38.2903 90.8281C37.1477 94.75 39.7292 101.43 45.8866 105.376C46.0491 105.476 46.159 105.639 46.202 105.827C46.2786 106.176 48.1716 114.275 56.5089 114.275C56.7145 114.275 56.92 114.275 57.1304 114.26C58.8896 114.179 59.9748 113.685 60.3573 112.793C61.4375 110.271 57.508 104.886 55.9018 103.026C55.8062 102.916 55.744 102.777 55.7297 102.628C55.7154 102.47 54.0565 86.9878 44.328 86.9878L44.3376 86.9921Z" fill="black"/>
<path d="M110.52 74.1174L134.063 101.155C135.024 102.258 136.377 102.824 137.73 102.824C138.868 102.824 140.006 102.426 140.928 101.62C142.955 99.8463 143.161 96.7633 141.392 94.7302L117.848 67.6924" fill="#FD2222"/>
<path d="M137.732 103.543C136.116 103.543 134.586 102.844 133.525 101.626L109.981 74.5878C109.722 74.2908 109.751 73.8348 110.048 73.5716C110.344 73.3126 110.798 73.3414 111.061 73.6385L134.606 100.676C135.394 101.583 136.532 102.101 137.732 102.101C138.736 102.101 139.702 101.736 140.462 101.075C141.298 100.341 141.795 99.3287 141.872 98.2217C141.948 97.114 141.585 96.0395 140.858 95.2006L117.314 68.1628C117.056 67.8658 117.085 67.4098 117.381 67.1466C117.677 66.8827 118.132 66.9158 118.395 67.2134L141.939 94.2513C142.919 95.378 143.406 96.8213 143.306 98.3125C143.206 99.8037 142.532 101.17 141.408 102.153C140.39 103.045 139.085 103.534 137.737 103.534L137.732 103.543Z" fill="black"/>
<path d="M143.82 95.6323C143.82 95.6323 141.564 90.1425 138.027 93.2924C134.489 96.443 129.909 103.371 136.191 105.351" fill="white"/>
<path d="M136.197 106.071C136.125 106.071 136.053 106.061 135.981 106.037C133.5 105.256 132.697 103.769 132.463 102.657C131.703 99.0846 135.46 94.616 137.554 92.7504C138.649 91.7772 139.768 91.4127 140.886 91.6716C143.167 92.1994 144.433 95.2247 144.486 95.3542C144.639 95.7236 144.462 96.1403 144.094 96.2937C143.731 96.4477 143.31 96.2698 143.157 95.9059C142.875 95.2198 141.852 93.3739 140.557 93.0769C139.906 92.9278 139.237 93.1726 138.501 93.8293C135.867 96.174 133.348 99.9573 133.859 102.359C134.088 103.443 134.925 104.201 136.407 104.666C136.785 104.786 136.995 105.188 136.876 105.567C136.78 105.874 136.498 106.071 136.192 106.071H136.197Z" fill="black"/>
<path d="M141.305 95.5409C141.305 95.5409 139.598 87.6197 146.42 83.391C152.334 79.7226 158.257 82.6473 160.819 88.8231L141.305 112.639V114.993C141.305 114.993 136.281 113.267 134.665 109.575C133.049 105.883 136.907 102.287 136.907 102.287" fill="white"/>
<path d="M141.307 115.718C141.231 115.718 141.149 115.703 141.073 115.679C140.857 115.603 135.728 113.805 134.007 109.873C132.21 105.764 136.245 101.928 136.416 101.765C136.708 101.496 137.158 101.511 137.43 101.803C137.698 102.096 137.684 102.551 137.391 102.82C137.358 102.853 133.926 106.123 135.317 109.293C136.378 111.714 139.122 113.249 140.585 113.92V112.64C140.585 112.472 140.643 112.313 140.748 112.184L159.985 88.7041C158.67 85.7886 156.519 83.6696 154.023 82.8688C151.7 82.1158 149.195 82.5092 146.79 84.0004C140.475 87.9174 141.981 95.3113 142 95.3881C142.082 95.7765 141.837 96.16 141.45 96.2417C141.063 96.3227 140.681 96.0784 140.6 95.69C140.58 95.6034 138.869 87.2221 146.04 82.7774C148.812 81.056 151.728 80.6154 154.463 81.4973C157.465 82.4662 160.023 85.0362 161.476 88.5458C161.576 88.79 161.538 89.0729 161.366 89.2791L142.014 112.898V114.999C142.014 115.229 141.904 115.449 141.713 115.584C141.589 115.67 141.445 115.718 141.297 115.718H141.307Z" fill="black"/>
<path d="M142.836 102.561C142.836 102.561 144.453 86.2686 154.95 86.2686C165.448 86.2686 163.474 99.7703 153.784 105.98C153.784 105.98 151.719 115.43 142.119 114.98C132.52 114.529 142.836 102.561 142.836 102.561Z" fill="white"/>
<path d="M142.776 115.718C142.551 115.718 142.322 115.713 142.083 115.703C139.726 115.594 138.22 114.807 137.603 113.368C136.069 109.782 141.055 103.563 142.145 102.264C142.394 100.164 144.497 85.5537 154.947 85.5537C158.819 85.5537 161.454 87.2849 162.367 90.4256C163.848 95.5128 160.359 102.499 154.402 106.435C153.943 108.056 151.314 115.718 142.771 115.718H142.776ZM154.952 86.9921C145.229 86.9921 143.565 102.48 143.55 102.633C143.536 102.782 143.474 102.921 143.379 103.031C141.772 104.891 137.847 110.281 138.923 112.798C139.305 113.69 140.391 114.179 142.15 114.265C151.003 114.687 153.001 106.19 153.083 105.827C153.126 105.639 153.236 105.476 153.398 105.376C159.561 101.43 162.137 94.75 160.995 90.8281C160.263 88.3207 158.174 86.9921 154.947 86.9921H154.952Z" fill="black"/>
<path d="M108.933 62.8451C110.047 61.0374 110.696 58.8941 110.696 56.5879H88.2617C88.2617 58.8894 88.9116 61.0374 90.0254 62.8451C92.0333 61.0135 95.5139 59.7956 99.477 59.7956C103.44 59.7956 106.92 61.0087 108.928 62.8451H108.933Z" fill="black"/>
<path d="M108.934 63.565C108.758 63.565 108.585 63.4975 108.451 63.3778C106.491 61.5847 103.135 60.5154 99.4834 60.5154C95.8309 60.5154 92.4748 61.5847 90.5148 63.3778C90.357 63.5214 90.1417 63.5889 89.9318 63.5601C89.7213 63.5313 89.5347 63.4067 89.42 63.2244C88.1964 61.2394 87.5508 58.9475 87.5508 56.5933C87.5508 56.1953 87.8711 55.874 88.2682 55.874H110.703C111.1 55.874 111.42 56.1953 111.42 56.5933C111.42 58.9475 110.775 61.2442 109.551 63.2244C109.441 63.4067 109.25 63.5264 109.039 63.5601C109.006 63.5601 108.972 63.565 108.939 63.565H108.934ZM99.4834 59.0817C103.097 59.0817 106.477 60.0695 108.734 61.7523C109.446 60.3812 109.862 58.8708 109.962 57.3125H89.0088C89.1095 58.8708 89.5255 60.3812 90.2374 61.7523C92.4938 60.0695 95.8738 59.0817 99.4877 59.0817H99.4834Z" fill="black"/>
<path d="M99.4822 68.2205C103.455 68.2205 106.945 66.077 108.934 62.8504C106.926 61.0186 103.446 59.8008 99.4822 59.8008C95.5192 59.8008 92.0391 61.0139 90.0312 62.8504C92.025 66.077 95.51 68.2205 99.4822 68.2205Z" fill="white"/>
<path d="M99.4826 68.9393C95.3907 68.9393 91.6284 66.8056 89.4198 63.2286C89.2382 62.9359 89.291 62.5523 89.5487 62.3173C91.7671 60.2941 95.4816 59.0811 99.4826 59.0811C103.484 59.0811 107.199 60.2894 109.417 62.3173C109.67 62.5523 109.728 62.9316 109.546 63.2286C107.337 66.8056 103.575 68.9393 99.4826 68.9393ZM90.9785 62.9837C92.9527 65.8225 96.0885 67.496 99.4826 67.496C102.877 67.496 106.008 65.8176 107.987 62.9837C105.984 61.4306 102.863 60.5147 99.4826 60.5147C96.1032 60.5147 92.9815 61.4306 90.9785 62.9837Z" fill="black"/>
<path d="M100.031 71.7829C96.7997 71.7829 94.3997 70.3972 94.2469 70.3064C93.9075 70.1045 93.7928 69.6639 93.9934 69.3233C94.1941 68.9828 94.6341 68.8674 94.9734 69.0693C95.1698 69.184 99.8925 71.8835 104.778 69.0693C105.123 68.8723 105.558 68.9877 105.758 69.3325C105.954 69.678 105.839 70.1143 105.496 70.3156C103.583 71.4184 101.695 71.7878 100.031 71.7878V71.7829Z" fill="black"/>
</g>
</g>
<defs>
<clipPath id="clip0_636_729">
<rect width="194.53" height="118.436" fill="white"/>
</clipPath>
</defs>
</svg>
